<svg xmlns="http://www.w3.org/2000/svg" viewBox="0 0 1600 1000" width="1600" height="1000">
  <defs>
    <linearGradient id="bg-chain" x1="0" y1="0" x2="1" y2="1">
      <stop offset="0" stop-color="#0B1628"/>
      <stop offset="0.55" stop-color="#122036"/>
      <stop offset="1" stop-color="#060D1A"/>
    </linearGradient>
    <radialGradient id="glow-b-chain" cx="0.5" cy="0.5" r="0.5">
      <stop offset="0" stop-color="#2E9BFF" stop-opacity="0.55"/>
      <stop offset="1" stop-color="#2E9BFF" stop-opacity="0"/>
    </radialGradient>
    <radialGradient id="glow-g-chain" cx="0.5" cy="0.5" r="0.5">
      <stop offset="0" stop-color="#34D08C" stop-opacity="0.5"/>
      <stop offset="1" stop-color="#34D08C" stop-opacity="0"/>
    </radialGradient>
    <pattern id="grid-chain" width="80" height="80" patternUnits="userSpaceOnUse">
      <path d="M 80 0 L 0 0 0 80" fill="none" stroke="#24405F" stroke-opacity="0.35" stroke-width="1"/>
    </pattern>
  </defs>
  <rect width="1600" height="1000" fill="url(#bg-chain)"/>
  <rect width="1600" height="1000" fill="url(#grid-chain)" opacity="0.5"/>
  <rect x="0" y="996" width="1600" height="4" fill="#2E9BFF" opacity="0.7"/><ellipse cx="1150" cy="300" rx="400" ry="288" fill="url(#glow-b-chain)"/>
  <g transform="translate(1150 300) scale(2.1)" stroke="#2E9BFF" fill="#122036">
    <rect x="-60" y="-60" width="120" height="120" stroke-width="4" rx="8"/>
    <rect x="-34" y="-34" width="68" height="68" fill="none" stroke-opacity="0.6" stroke-width="2"/>
    <line x1="-50" y1="-60" x2="-50" y2="-84" stroke-width="4"/><line x1="-50" y1="60" x2="-50" y2="84" stroke-width="4"/><line x1="-60" y1="-50" x2="-84" y2="-50" stroke-width="4"/><line x1="60" y1="-50" x2="84" y2="-50" stroke-width="4"/><line x1="-30" y1="-60" x2="-30" y2="-84" stroke-width="4"/><line x1="-30" y1="60" x2="-30" y2="84" stroke-width="4"/><line x1="-60" y1="-30" x2="-84" y2="-30" stroke-width="4"/><line x1="60" y1="-30" x2="84" y2="-30" stroke-width="4"/><line x1="-10" y1="-60" x2="-10" y2="-84" stroke-width="4"/><line x1="-10" y1="60" x2="-10" y2="84" stroke-width="4"/><line x1="-60" y1="-10" x2="-84" y2="-10" stroke-width="4"/><line x1="60" y1="-10" x2="84" y2="-10" stroke-width="4"/><line x1="10" y1="-60" x2="10" y2="-84" stroke-width="4"/><line x1="10" y1="60" x2="10" y2="84" stroke-width="4"/><line x1="-60" y1="10" x2="-84" y2="10" stroke-width="4"/><line x1="60" y1="10" x2="84" y2="10" stroke-width="4"/><line x1="30" y1="-60" x2="30" y2="-84" stroke-width="4"/><line x1="30" y1="60" x2="30" y2="84" stroke-width="4"/><line x1="-60" y1="30" x2="-84" y2="30" stroke-width="4"/><line x1="60" y1="30" x2="84" y2="30" stroke-width="4"/><line x1="50" y1="-60" x2="50" y2="-84" stroke-width="4"/><line x1="50" y1="60" x2="50" y2="84" stroke-width="4"/><line x1="-60" y1="50" x2="-84" y2="50" stroke-width="4"/><line x1="60" y1="50" x2="84" y2="50" stroke-width="4"/>
  </g>
  <g transform="translate(320 860) scale(1.5)" fill="none" stroke="#7CC4FF" stroke-width="10" stroke-linecap="round">
    <circle cx="0" cy="0" r="34" fill="#122036" stroke-width="8"/>
    <path d="M 0 0 L 95 -85"/>
    <circle cx="95" cy="-85" r="16" fill="#122036" stroke-width="8"/>
    <path d="M 95 -85 L 175 -55 L 225 -120"/>
    <circle cx="225" cy="-120" r="11" fill="#122036" stroke-width="8"/>
    <path d="M 225 -120 L 252 -158 M 225 -120 L 258 -104 M 225 -120 L 240 -88"/>
  </g><g transform="translate(360 700) scale(1.05)"><rect x="0" y="70" width="760" height="16" fill="#122036" stroke="#5D7BA3" stroke-width="2"/><circle cx="28" cy="94" r="10" fill="none" stroke="#5D7BA3" stroke-width="3"/><circle cx="78" cy="94" r="10" fill="none" stroke="#5D7BA3" stroke-width="3"/><circle cx="128" cy="94" r="10" fill="none" stroke="#5D7BA3" stroke-width="3"/><circle cx="178" cy="94" r="10" fill="none" stroke="#5D7BA3" stroke-width="3"/><circle cx="228" cy="94" r="10" fill="none" stroke="#5D7BA3" stroke-width="3"/><circle cx="278" cy="94" r="10" fill="none" stroke="#5D7BA3" stroke-width="3"/><circle cx="328" cy="94" r="10" fill="none" stroke="#5D7BA3" stroke-width="3"/><circle cx="378" cy="94" r="10" fill="none" stroke="#5D7BA3" stroke-width="3"/><circle cx="428" cy="94" r="10" fill="none" stroke="#5D7BA3" stroke-width="3"/><circle cx="478" cy="94" r="10" fill="none" stroke="#5D7BA3" stroke-width="3"/><circle cx="528" cy="94" r="10" fill="none" stroke="#5D7BA3" stroke-width="3"/><circle cx="578" cy="94" r="10" fill="none" stroke="#5D7BA3" stroke-width="3"/><circle cx="628" cy="94" r="10" fill="none" stroke="#5D7BA3" stroke-width="3"/><circle cx="678" cy="94" r="10" fill="none" stroke="#5D7BA3" stroke-width="3"/><circle cx="728" cy="94" r="10" fill="none" stroke="#5D7BA3" stroke-width="3"/><rect x="40" y="8" width="96" height="62" rx="4" fill="#122036" stroke="#2E9BFF" stroke-width="3"/><line x1="40" y1="28" x2="136" y2="28" stroke="#2E9BFF" stroke-opacity="0.5" stroke-width="2"/><rect x="200" y="-6" width="96" height="62" rx="4" fill="#122036" stroke="#34D08C" stroke-width="3"/><line x1="200" y1="14" x2="296" y2="14" stroke="#34D08C" stroke-opacity="0.5" stroke-width="2"/><rect x="420" y="8" width="96" height="62" rx="4" fill="#122036" stroke="#2E9BFF" stroke-width="3"/><line x1="420" y1="28" x2="516" y2="28" stroke="#2E9BFF" stroke-opacity="0.5" stroke-width="2"/><rect x="600" y="-2" width="96" height="62" rx="4" fill="#122036" stroke="#34D08C" stroke-width="3"/><line x1="600" y1="18" x2="696" y2="18" stroke="#34D08C" stroke-opacity="0.5" stroke-width="2"/></g>
  <path d="M 60 940 C 500 860, 1000 980, 1640 900" fill="none" stroke="#2E9BFF" stroke-opacity="0.2" stroke-width="2"/>
  <path d="M 60 940 C 500 860, 1000 980, 1640 900" fill="none" stroke="#2E9BFF" stroke-opacity="0.5" stroke-width="2"
    stroke-dasharray="14 106" stroke-linecap="round"/>
  <g transform="translate(28 976)">
    <rect x="0" y="-24" width="615" height="34" rx="4" fill="#060D1A" opacity="0.72"/>
    <text x="14" y="0" font-family="Consolas, monospace" font-size="17" fill="#2E9BFF" opacity="0.9">IMG-005</text>
    <text x="113" y="0" font-family="PingFang SC, Microsoft YaHei, sans-serif" font-size="17" fill="#B9C7DA" opacity="0.85">具身智能供应链 · 自动化产线/机器人零部件 · 占位图可替换</text>
  </g>
  <g transform="translate(1572 28)" stroke="#5D7BA3" stroke-width="2" opacity="0.5">
    <line x1="-46" y1="0" x2="0" y2="0"/><line x1="0" y1="0" x2="0" y2="46"/>
  </g></svg>
