<svg xmlns="http://www.w3.org/2000/svg" viewBox="0 0 1400 900" width="1400" height="900">
  <defs>
    <linearGradient id="bg-esg" x1="0" y1="0" x2="1" y2="1">
      <stop offset="0" stop-color="#0B1628"/>
      <stop offset="0.55" stop-color="#122036"/>
      <stop offset="1" stop-color="#060D1A"/>
    </linearGradient>
    <radialGradient id="glow-b-esg" cx="0.5" cy="0.5" r="0.5">
      <stop offset="0" stop-color="#2E9BFF" stop-opacity="0.55"/>
      <stop offset="1" stop-color="#2E9BFF" stop-opacity="0"/>
    </radialGradient>
    <radialGradient id="glow-g-esg" cx="0.5" cy="0.5" r="0.5">
      <stop offset="0" stop-color="#34D08C" stop-opacity="0.5"/>
      <stop offset="1" stop-color="#34D08C" stop-opacity="0"/>
    </radialGradient>
    <pattern id="grid-esg" width="80" height="80" patternUnits="userSpaceOnUse">
      <path d="M 80 0 L 0 0 0 80" fill="none" stroke="#24405F" stroke-opacity="0.35" stroke-width="1"/>
    </pattern>
  </defs>
  <rect width="1400" height="900" fill="url(#bg-esg)"/>
  <rect width="1400" height="900" fill="url(#grid-esg)" opacity="0.5"/>
  <rect x="0" y="896" width="1400" height="4" fill="#2E9BFF" opacity="0.7"/><ellipse cx="700" cy="300" rx="400" ry="288" fill="url(#glow-g-esg)"/><g transform="translate(700 430)">
       <circle r="170" fill="none" stroke="#34D08C" stroke-width="3" opacity="0.7"/>
       <ellipse rx="170" ry="64" fill="none" stroke="#34D08C" stroke-width="2" opacity="0.5" transform="rotate(-18)"/>
       <ellipse rx="170" ry="64" fill="none" stroke="#34D08C" stroke-width="2" opacity="0.5" transform="rotate(52)"/>
       <circle r="64" fill="#34D08C" opacity="0.25"/>
       <path d="M -36 10 C -10 44, 26 40, 44 -6 C 20 6, 2 2, -6 -18 C -20 -2, -30 2, -36 10 Z" fill="#34D08C"/>
     </g><g transform="translate(120 620)"><line x1="0" y1="240" x2="172.8" y2="0" stroke="#34D08C" stroke-opacity="0.3" stroke-width="1.5"/><line x1="68.57142857142857" y1="240" x2="192" y2="0" stroke="#34D08C" stroke-opacity="0.42" stroke-width="2.7"/><line x1="137.14285714285714" y1="240" x2="211.2" y2="0" stroke="#34D08C" stroke-opacity="0.3" stroke-width="3.9"/><line x1="205.71428571428572" y1="240" x2="230.4" y2="0" stroke="#34D08C" stroke-opacity="0.42" stroke-width="1.5"/><line x1="274.2857142857143" y1="240" x2="249.6" y2="0" stroke="#34D08C" stroke-opacity="0.3" stroke-width="2.7"/><line x1="342.85714285714283" y1="240" x2="268.8" y2="0" stroke="#34D08C" stroke-opacity="0.42" stroke-width="3.9"/><line x1="411.42857142857144" y1="240" x2="288" y2="0" stroke="#34D08C" stroke-opacity="0.3" stroke-width="1.5"/><line x1="480" y1="240" x2="307.2" y2="0" stroke="#34D08C" stroke-opacity="0.42" stroke-width="2.7"/><path d="M 162.432 14.399999999999999 Q 240 4.399999999999999 317.568 14.399999999999999" fill="none" stroke="#34D08C" stroke-opacity="0.4" stroke-width="2"/><path d="M 145.152 38.4 Q 240 28.4 334.848 38.4" fill="none" stroke="#34D08C" stroke-opacity="0.4" stroke-width="2"/><path d="M 120.96000000000001 72 Q 240 62 359.03999999999996 72" fill="none" stroke="#34D08C" stroke-opacity="0.4" stroke-width="2"/><path d="M 86.4 120 Q 240 110 393.6 120" fill="none" stroke="#34D08C" stroke-opacity="0.4" stroke-width="2"/><path d="M 43.19999999999999 180 Q 240 170 436.8 180" fill="none" stroke="#34D08C" stroke-opacity="0.4" stroke-width="2"/></g><g transform="translate(880 640) scale(0.95)">
    <g transform="translate(0 60) rotate(-17.188733853924695)">
      <rect x="0" y="0" width="150" height="92" fill="#122036" stroke="#34D08C" stroke-width="3"/>
      <line x1="0" y1="30.666666666666668" x2="150" y2="30.666666666666668" stroke="#34D08C" stroke-opacity="0.6" stroke-width="2"/><line x1="0" y1="61.333333333333336" x2="150" y2="61.333333333333336" stroke="#34D08C" stroke-opacity="0.6" stroke-width="2"/>
      <line x1="37.5" y1="0" x2="37.5" y2="92" stroke="#34D08C" stroke-opacity="0.6" stroke-width="2"/><line x1="75" y1="0" x2="75" y2="92" stroke="#34D08C" stroke-opacity="0.6" stroke-width="2"/><line x1="112.5" y1="0" x2="112.5" y2="92" stroke="#34D08C" stroke-opacity="0.6" stroke-width="2"/>
      <line x1="75" y1="92" x2="61" y2="136" stroke="#5D7BA3" stroke-width="6"/>
      <line x1="61" y1="136" x2="89" y2="136" stroke="#5D7BA3" stroke-width="6"/>
    </g>
    <g transform="translate(170 30) rotate(-17.188733853924695)">
      <rect x="0" y="0" width="150" height="92" fill="#122036" stroke="#34D08C" stroke-width="3"/>
      <line x1="0" y1="30.666666666666668" x2="150" y2="30.666666666666668" stroke="#34D08C" stroke-opacity="0.6" stroke-width="2"/><line x1="0" y1="61.333333333333336" x2="150" y2="61.333333333333336" stroke="#34D08C" stroke-opacity="0.6" stroke-width="2"/>
      <line x1="37.5" y1="0" x2="37.5" y2="92" stroke="#34D08C" stroke-opacity="0.6" stroke-width="2"/><line x1="75" y1="0" x2="75" y2="92" stroke="#34D08C" stroke-opacity="0.6" stroke-width="2"/><line x1="112.5" y1="0" x2="112.5" y2="92" stroke="#34D08C" stroke-opacity="0.6" stroke-width="2"/>
      <line x1="75" y1="92" x2="61" y2="136" stroke="#5D7BA3" stroke-width="6"/>
      <line x1="61" y1="136" x2="89" y2="136" stroke="#5D7BA3" stroke-width="6"/>
    </g>
    <g transform="translate(340 0) rotate(-17.188733853924695)">
      <rect x="0" y="0" width="150" height="92" fill="#122036" stroke="#34D08C" stroke-width="3"/>
      <line x1="0" y1="30.666666666666668" x2="150" y2="30.666666666666668" stroke="#34D08C" stroke-opacity="0.6" stroke-width="2"/><line x1="0" y1="61.333333333333336" x2="150" y2="61.333333333333336" stroke="#34D08C" stroke-opacity="0.6" stroke-width="2"/>
      <line x1="37.5" y1="0" x2="37.5" y2="92" stroke="#34D08C" stroke-opacity="0.6" stroke-width="2"/><line x1="75" y1="0" x2="75" y2="92" stroke="#34D08C" stroke-opacity="0.6" stroke-width="2"/><line x1="112.5" y1="0" x2="112.5" y2="92" stroke="#34D08C" stroke-opacity="0.6" stroke-width="2"/>
      <line x1="75" y1="92" x2="61" y2="136" stroke="#5D7BA3" stroke-width="6"/>
      <line x1="61" y1="136" x2="89" y2="136" stroke="#5D7BA3" stroke-width="6"/>
    </g>
    <g transform="translate(85 150) rotate(-17.188733853924695)">
      <rect x="0" y="0" width="150" height="92" fill="#122036" stroke="#34D08C" stroke-width="3"/>
      <line x1="0" y1="30.666666666666668" x2="150" y2="30.666666666666668" stroke="#34D08C" stroke-opacity="0.6" stroke-width="2"/><line x1="0" y1="61.333333333333336" x2="150" y2="61.333333333333336" stroke="#34D08C" stroke-opacity="0.6" stroke-width="2"/>
      <line x1="37.5" y1="0" x2="37.5" y2="92" stroke="#34D08C" stroke-opacity="0.6" stroke-width="2"/><line x1="75" y1="0" x2="75" y2="92" stroke="#34D08C" stroke-opacity="0.6" stroke-width="2"/><line x1="112.5" y1="0" x2="112.5" y2="92" stroke="#34D08C" stroke-opacity="0.6" stroke-width="2"/>
      <line x1="75" y1="92" x2="61" y2="136" stroke="#5D7BA3" stroke-width="6"/>
      <line x1="61" y1="136" x2="89" y2="136" stroke="#5D7BA3" stroke-width="6"/>
    </g>
    <g transform="translate(255 120) rotate(-17.188733853924695)">
      <rect x="0" y="0" width="150" height="92" fill="#122036" stroke="#34D08C" stroke-width="3"/>
      <line x1="0" y1="30.666666666666668" x2="150" y2="30.666666666666668" stroke="#34D08C" stroke-opacity="0.6" stroke-width="2"/><line x1="0" y1="61.333333333333336" x2="150" y2="61.333333333333336" stroke="#34D08C" stroke-opacity="0.6" stroke-width="2"/>
      <line x1="37.5" y1="0" x2="37.5" y2="92" stroke="#34D08C" stroke-opacity="0.6" stroke-width="2"/><line x1="75" y1="0" x2="75" y2="92" stroke="#34D08C" stroke-opacity="0.6" stroke-width="2"/><line x1="112.5" y1="0" x2="112.5" y2="92" stroke="#34D08C" stroke-opacity="0.6" stroke-width="2"/>
      <line x1="75" y1="92" x2="61" y2="136" stroke="#5D7BA3" stroke-width="6"/>
      <line x1="61" y1="136" x2="89" y2="136" stroke="#5D7BA3" stroke-width="6"/>
    </g></g>
  <path d="M -30 880 C 400 800, 1000 940, 1440 840" fill="none" stroke="#34D08C" stroke-opacity="0.18000000000000002" stroke-width="2"/>
  <path d="M -30 880 C 400 800, 1000 940, 1440 840" fill="none" stroke="#34D08C" stroke-opacity="0.45" stroke-width="2"
    stroke-dasharray="14 106" stroke-linecap="round"/>
  <g transform="translate(28 876)">
    <rect x="0" y="-24" width="593" height="34" rx="4" fill="#060D1A" opacity="0.72"/>
    <text x="14" y="0" font-family="Consolas, monospace" font-size="17" fill="#2E9BFF" opacity="0.9">IMG-021</text>
    <text x="113" y="0" font-family="PingFang SC, Microsoft YaHei, sans-serif" font-size="17" fill="#B9C7DA" opacity="0.85">可持续发展 ESG · 绿色园区/生态实景 · 占位图可替换</text>
  </g>
  <g transform="translate(1372 28)" stroke="#5D7BA3" stroke-width="2" opacity="0.5">
    <line x1="-46" y1="0" x2="0" y2="0"/><line x1="0" y1="0" x2="0" y2="46"/>
  </g></svg>
